<svg width="256" height="256" viewBox="0 0 256 256" fill="none" xmlns="http://www.w3.org/2000/svg">
<g clip-path="url(#clip0_4855_2536)">
<path d="M256 73C256 54.2 260.7 28.8 248.7 13C235.6 -4.09997 211.8 3.17097e-05 193 3.17097e-05H82H47C41.2 3.17097e-05 34.7 -0.799968 29 0.300032C14 3.50003 1.49997 15.2 -3.016e-05 31C-1.60003 47.3 -3.016e-05 64.6 -3.016e-05 81V183C-3.016e-05 201.8 -4.70003 227.2 7.29997 243C20.3 260.1 44.1 256 63 256H174H209C214.8 256 221.3 256.8 227 255.7C242 252.6 254.5 240.8 256 225C257.6 208.7 256 191.4 256 175V73Z" fill="#FF2842"/>
<path d="M83.6 128L71.9 106.7H68.6V128H54.8V71.7002H77.8C82.2 71.7002 86 72.5002 89.2 74.0002C92.3 75.6002 94.7 77.7002 96.2 80.4002C97.7 83.1002 98.5 86.1002 98.5 89.4002C98.5 93.1002 97.4 96.5002 95.3 99.4002C93.2 102.3 90.1 104.4 86 105.7L99 128H83.6ZM68.6 97.1002H77.1C79.6 97.1002 81.5 96.5002 82.8 95.3002C84.1 94.1002 84.7 92.3002 84.7 90.1002C84.7 88.0002 84.1 86.3002 82.8 85.0002C81.5 83.8002 79.7 83.2002 77.1 83.2002H68.6V97.1002Z" fill="white"/>
<path d="M120.9 82.7002V94.1002H139.3V104.7H120.9V117.1H141.7V128.1H107.2V71.7002H141.7V82.7002H120.9Z" fill="white"/>
<path d="M187.2 75.3002C191.6 77.7002 195.1 81.0002 197.5 85.2002C199.9 89.5002 201.1 94.4002 201.1 99.9002C201.1 105.4 199.9 110.3 197.5 114.6C195.1 118.9 191.6 122.2 187.2 124.5C182.7 126.9 177.6 128 171.7 128H150.6V71.7002H171.7C177.6 71.7002 182.8 72.9002 187.2 75.3002ZM182.9 111.9C185.8 109.1 187.2 105.1 187.2 99.9002C187.2 94.7002 185.8 90.7002 182.9 87.8002C180 84.9002 176 83.5002 170.8 83.5002H164.3V116.2H170.8C175.9 116.2 180 114.8 182.9 111.9Z" fill="white"/>
<path d="M87.2 151.1C89.7 153.9 91 157.7 91 162.5V183.8H80V164C80 161.6 79.4 159.7 78.1 158.3C76.8 157 75.1 156.3 73 156.3C70.9 156.3 69.2 157 67.9 158.3C66.6 159.6 66 161.5 66 164V183.8H54.8V147.4H66V152.2C67.1 150.6 68.7 149.3 70.6 148.4C72.5 147.5 74.7 147 77.1 147C81.3 147 84.7 148.3 87.2 151.1Z" fill="white"/>
<path d="M105.8 182C103 180.5 100.7 178.3 99.1 175.5C97.5 172.7 96.7 169.4 96.7 165.6C96.7 161.9 97.5 158.6 99.2 155.7C100.9 152.9 103.1 150.7 106 149.1C108.9 147.6 112.1 146.8 115.7 146.8C119.3 146.8 122.5 147.6 125.4 149.1C128.3 150.6 130.5 152.8 132.2 155.7C133.9 158.5 134.7 161.8 134.7 165.6C134.7 169.3 133.9 172.6 132.2 175.5C130.5 178.3 128.2 180.5 125.4 182.1C122.5 183.6 119.3 184.4 115.7 184.4C111.8 184.3 108.6 183.5 105.8 182ZM120.8 172.3C122.3 170.7 123.1 168.5 123.1 165.6C123.1 162.7 122.4 160.4 120.9 158.9C119.4 157.3 117.6 156.6 115.5 156.6C113.3 156.6 111.5 157.4 110.1 158.9C108.7 160.4 107.9 162.7 107.9 165.7C107.9 168.6 108.6 170.9 110 172.4C111.4 174 113.2 174.7 115.3 174.7C117.5 174.6 119.3 173.8 120.8 172.3Z" fill="white"/>
<path d="M160.6 174.3V183.8H155C151 183.8 147.8 182.8 145.5 180.8C143.2 178.8 142.1 175.6 142.1 171.1V156.6H137.7V147.3H142.1V138.4H153.3V147.3H160.6V156.6H153.3V171.2C153.3 172.3 153.6 173.1 154.1 173.5C154.6 174 155.5 174.2 156.7 174.2H160.6V174.3Z" fill="white"/>
<path d="M201 168.2H175.8C176 170.5 176.7 172.2 178 173.4C179.3 174.6 180.9 175.2 182.7 175.2C185.5 175.2 187.4 174 188.5 171.7H200.4C199.8 174.1 198.7 176.2 197.1 178.2C195.5 180.1 193.5 181.6 191.1 182.7C188.7 183.8 186 184.3 183.1 184.3C179.5 184.3 176.4 183.5 173.6 182C170.8 180.5 168.6 178.3 167.1 175.5C165.5 172.7 164.8 169.4 164.8 165.6C164.8 161.8 165.6 158.5 167.1 155.7C168.6 152.9 170.8 150.7 173.6 149.2C176.4 147.7 179.6 146.9 183.2 146.9C186.7 146.9 189.9 147.6 192.6 149.1C195.3 150.6 197.5 152.7 199 155.4C200.5 158.1 201.3 161.3 201.3 165C201.2 166 201.1 167.1 201 168.2ZM189.7 162C189.7 160.1 189 158.6 187.7 157.4C186.4 156.3 184.8 155.7 182.8 155.7C180.9 155.7 179.4 156.2 178.1 157.3C176.8 158.4 176 159.9 175.7 161.9H189.7V162Z" fill="white"/>
</g>
<defs>
<clipPath id="clip0_4855_2536">
<rect width="256" height="256" fill="white"/>
</clipPath>
</defs>
</svg>
