<svg width="800" height="800" viewBox="0 0 800 800" fill="none" xmlns="http://www.w3.org/2000/svg">
<path fill-rule="evenodd" clip-rule="evenodd" d="M711.111 800H88.89C39.8 800 0 760.2 0 711.111V88.89C0 39.8 39.8 0 88.889 0H711.11C760.2 0 800 39.8 800 88.889V711.11C800 760.2 760.2 800 711.111 800Z" fill="black"/>
<path d="M628 623H484.942L174 179H317.058L628 623ZM501.988 585.349H558.948L300.013 216.65H243.053L501.988 585.349Z" fill="white"/>
<path d="M219.297 623L379 437.732L358.114 410L174 623H219.297Z" fill="white"/>
<path d="M409 348.387L429.213 377L603 177H558.33L409 348.387Z" fill="white"/>
</svg>
